<svg width="430" height="360" viewBox="0 0 430 360" fill="none" xmlns="http://www.w3.org/2000/svg">
<path d="M197.239 44.7815C197.239 44.7815 196.904 51.3128 192.778 54.6892C188.596 58.0656 182.796 61.4973 186.923 66.3681C189.432 69.357 196.012 64.7076 194.674 60.4456C193.335 56.1836 198.243 49.6523 197.239 44.7815ZM80.747 146.404C80.747 146.404 86.2119 143.803 90.7846 145.685C95.413 147.567 100.766 150.722 102.941 145.242C104.224 141.921 97.5879 138.711 94.6881 141.644C91.7884 144.578 84.3159 143.471 80.747 146.404ZM360.35 287.99C360.35 287.99 352.432 292.141 345.573 289.705C338.714 287.215 330.572 282.897 327.728 291.089C325.999 296.126 335.981 300.443 340.108 295.96C344.234 291.421 355.331 292.528 360.35 287.99ZM27.8265 129.522C27.8265 129.522 30.5032 133.784 29.3879 137.714C28.2726 141.644 26.0978 146.349 30.8935 147.622C33.7933 148.397 35.8566 142.64 33.1241 140.537C30.4474 138.378 30.6147 132.179 27.8265 129.522ZM246.479 331.882C246.479 331.882 250.55 326.236 256.238 325.572C261.87 324.908 269.064 325.074 268.171 318.377C267.614 314.281 259.082 314.724 257.799 319.318C256.572 323.856 248.375 326.956 246.479 331.882ZM244.304 327.565C244.304 327.565 246.925 318.764 253.784 315.554C260.643 312.288 269.733 309.521 265.718 301.495C263.264 296.569 252.725 300.72 253.115 307.03C253.505 313.285 244.583 320.591 244.304 327.565ZM361.633 278.193C361.633 278.193 364.421 270.886 370.388 268.562C376.41 266.237 384.329 264.41 381.429 257.326C379.645 253.008 370.444 255.887 370.388 261.256C370.276 266.624 362.302 272.27 361.633 278.193ZM330.795 108.213C330.795 108.213 329.457 113.803 325.33 116.017C321.204 118.286 315.571 120.334 318.36 125.205C320.088 128.194 326.501 125.26 326.055 121.331C325.609 117.401 330.907 112.585 330.795 108.213ZM257.019 136.331C257.019 136.331 259.639 128.637 265.774 126.035C271.963 123.379 280.105 121.22 276.815 113.969C274.807 109.596 265.383 112.862 265.495 118.452C265.606 124.043 257.52 130.187 257.019 136.331ZM50.4669 98.5264C50.4669 98.5264 43.4963 96.2571 41.0427 90.7774C38.589 85.2978 36.5815 78.0469 30.0013 80.9805C26.042 82.807 29.1091 91.2202 34.1836 91.1095C39.2582 90.9435 44.8904 98.1943 50.4669 98.5264ZM173.037 50.1505C173.037 50.1505 169.636 45.0583 170.918 40.2428C172.145 35.4274 174.599 29.6156 168.743 28.2319C165.23 27.3463 162.832 34.4311 166.234 36.9218C169.636 39.4126 169.524 47.0509 173.037 50.1505ZM223.616 84.3015C223.616 84.3015 220.549 79.9842 221.497 75.7776C222.5 71.571 224.508 66.5341 219.378 65.4271C216.31 64.7629 214.415 70.9621 217.426 73.0654C220.381 75.1134 220.493 81.7 223.616 84.3015ZM308.378 226.551C308.378 226.551 307.987 220.518 311.389 216.976C314.846 213.378 319.809 209.559 315.46 205.518C312.783 203.083 307.318 208.064 308.991 211.828C310.72 215.647 306.928 222.178 308.378 226.551ZM195.399 115.63C195.399 115.63 203.763 118.84 206.384 125.648C209.005 132.456 211.013 141.423 219.21 138.212C224.173 136.22 220.939 125.814 214.805 125.703C208.615 125.537 202.202 116.404 195.399 115.63ZM218.931 32.8259C218.931 32.8259 223.17 38.8591 221.775 44.7262C220.381 50.5933 217.537 57.6781 224.675 59.2279C228.969 60.1689 231.646 51.5342 227.463 48.6007C223.337 45.6671 223.17 36.479 218.931 32.8259ZM154.412 28.7854C154.412 28.7854 144.988 23.3611 141.419 28.3426C137.906 33.2687 130.6 33.3794 128.649 27.5123C126.697 21.7006 143.315 16.1102 154.412 28.7854ZM378.474 129.08C378.474 129.08 369.663 125.205 367.042 129.855C364.365 134.559 358.008 135.334 355.722 130.353C353.435 125.371 367.544 118.951 378.474 129.08ZM254.899 360C254.899 360 263.097 348.819 257.186 343.727C251.331 338.635 252.111 329.447 259.863 327.786C267.558 326.07 272.577 347.657 254.899 360ZM148.055 277.307C148.055 277.307 154.022 265.296 147.553 261.366C141.084 257.436 140.303 248.525 147.441 245.647C154.579 242.769 162.888 262.584 148.055 277.307ZM163.167 194.393C163.167 194.393 172.145 191.736 171.141 186.588C170.082 181.441 174.32 176.847 179.171 179.116C184.023 181.33 177.777 194.946 163.167 194.393ZM91.398 127.475C91.398 127.475 79.5202 142.308 87.2714 149.67C95.0785 156.976 93.4613 169.541 82.7545 171.422C72.0477 173.304 66.4713 143.415 91.398 127.475ZM79.6875 165.611C79.6875 165.611 80.2451 178.673 87.6618 179.005C95.0227 179.337 99.8742 186.588 95.1342 192.345C90.45 198.156 73.9437 185.094 79.6875 165.611ZM232.259 84.9657C232.259 84.9657 246.925 96.4231 254.119 88.8955C261.368 81.3126 273.692 82.8624 275.588 93.2128C277.54 103.619 248.04 109.098 232.259 84.9657ZM371.949 145.685C371.949 145.685 366.15 163.563 375.908 167.714C385.667 171.865 388.511 184.042 379.254 189.467C369.942 194.891 354.383 169.042 371.949 145.685ZM380.258 210.001C380.258 210.001 375.741 225.555 384.273 228.876C392.861 232.197 395.649 242.603 387.786 247.584C379.979 252.51 365.759 230.647 380.258 210.001ZM284.232 21.9773C284.232 21.9773 270.514 26.9035 272.577 34.7632C274.584 42.6782 268.45 50.1505 260.699 47.1063C253.004 44.062 261.535 22.3648 284.232 21.9773ZM168.911 213.378C168.911 213.378 157.59 219.134 160.267 225.665C162.944 232.197 158.483 239.337 151.512 237.566C144.486 235.795 149.393 216.201 168.911 213.378ZM17.5658 115.796C17.5658 115.796 11.4875 131.238 19.9079 135.39C28.2726 139.541 30.1686 150.445 21.7482 154.762C13.272 159.079 0.836467 135.5 17.5658 115.796ZM315.348 260.425C315.348 260.425 309.66 249.687 303.303 252.344C296.946 254.946 289.975 250.794 291.648 244.097C293.265 237.344 312.337 241.828 315.348 260.425ZM267.67 145.076C267.67 145.076 250.271 147.068 250.494 156.81C250.717 166.552 241.46 173.636 233.319 167.935C225.121 162.29 241.126 139.375 267.67 145.076ZM291.091 39.9107C291.091 39.9107 297.615 28.3426 302.02 31.9957C306.426 35.7041 310.608 27.0695 303.47 22.1434C296.388 17.2726 289.752 29.671 291.091 39.9107ZM56.5452 64.3201C56.5452 64.3201 56.3779 82.641 48.5709 81.0358C40.8196 79.486 41.6003 92.6593 53.4224 93.9324C65.3002 95.1501 64.9657 75.8329 56.5452 64.3201ZM177.331 140.039C177.331 140.039 187.369 155.869 179.841 158.747C172.257 161.681 180.231 172.585 191.161 167.16C202.035 161.736 190.993 145.297 177.331 140.039ZM327.449 186.865C327.449 186.865 335.758 178.397 338.714 182.548C341.669 186.754 347.245 180.223 342.227 174.411C337.208 168.544 328.676 177.732 327.449 186.865ZM181.848 198.931C181.848 198.931 171.532 204.024 170.249 199.263C168.911 194.559 161.717 198.655 164.394 205.573C167.015 212.437 177.777 206.846 181.848 198.931ZM255.792 300.554C255.792 300.554 259.305 283.617 266.22 286.495C273.135 289.373 274.863 276.975 264.101 273.709C253.338 270.444 250.104 288.377 255.792 300.554ZM304.084 252.842C304.084 252.842 290.031 259.152 288.526 252.732C286.964 246.311 277.15 251.569 280.384 260.923C283.618 270.278 298.284 263.248 304.084 252.842ZM344.903 251.071C344.903 251.071 347.915 235.02 354.495 237.566C361.075 240.167 362.469 228.433 352.209 225.555C342.004 222.621 339.271 239.669 344.903 251.071ZM162.665 191.182C162.665 191.182 162.219 180.777 166.736 181.441C171.197 182.16 170.416 174.633 163.613 174.245C156.81 173.858 157.535 184.872 162.665 191.182ZM406.021 188.083C406.021 188.083 414.944 193.23 411.988 196.551C409.033 199.872 415.724 203.138 419.628 197.824C423.531 192.455 413.996 187.197 406.021 188.083ZM285.682 161.792C285.682 161.792 297.113 176.183 289.975 179.836C282.893 183.433 291.871 193.286 301.909 186.865C311.947 180.5 299.511 165.555 285.682 161.792ZM253.227 261.975C253.227 261.975 238.561 263.746 239.062 257.436C239.509 251.182 229.025 253.119 229.248 262.584C229.471 272.049 244.918 269.835 253.227 261.975ZM147.553 16.1102C147.553 16.1102 138.073 15.5567 139.077 11.5715C140.136 7.64167 133.221 7.69702 132.273 13.7302C131.325 19.7633 141.363 20.0954 147.553 16.1102ZM357.841 57.2353C357.841 57.2353 356.614 73.6189 349.699 71.7924C342.784 69.9105 342.729 81.8107 353.268 83.5819C363.863 85.4085 364.7 68.0286 357.841 57.2353ZM290.812 212.769C290.812 212.769 298.396 218.083 295.496 220.85C292.596 223.618 298.284 227.105 302.244 222.566C306.203 218.083 298.061 212.603 290.812 212.769ZM113.313 188.581C118.667 188.858 122.905 184.042 122.738 178.784C122.682 176.183 121.567 173.858 119.838 172.197C119.652 171.976 119.41 171.755 119.113 171.533C117.775 170.426 116.102 169.707 114.317 169.485C114.206 169.485 114.094 169.43 113.983 169.374C94.6881 164.227 79.799 172.862 79.799 172.862C99.7069 171.256 104.224 183.378 104.224 183.378C104.224 183.378 107.012 188.304 113.313 188.581ZM122.57 97.2534C122.793 100.021 125.637 101.847 128.426 101.405C129.764 101.183 130.935 100.464 131.66 99.4674C131.771 99.3198 131.864 99.1722 131.939 99.0246C132.441 98.2497 132.664 97.3087 132.664 96.3678C132.664 96.3309 132.682 96.2755 132.72 96.2017C134.002 85.8513 128.37 78.7665 128.37 78.7665C130.656 88.9509 124.634 92.1612 124.634 92.1612C124.634 92.1612 122.236 93.9324 122.57 97.2534ZM235.661 78.213C234.713 75.6115 231.59 74.5045 229.081 75.6115C227.798 76.1097 226.906 77.106 226.404 78.2683C226.367 78.379 226.311 78.5266 226.237 78.7111C226.014 79.5967 225.958 80.4823 226.181 81.4233C226.181 81.4602 226.199 81.5155 226.237 81.5893C227.408 91.7737 234.49 97.198 234.49 97.198C229.861 88.0099 234.88 83.5266 234.88 83.5266C234.88 83.5266 236.72 81.2572 235.661 78.213ZM126.418 207.566C127.255 202.529 123.128 197.935 117.998 197.437C115.488 197.16 113.146 197.935 111.306 199.374C111.083 199.522 110.841 199.725 110.581 199.983C109.354 201.145 108.518 202.64 108.072 204.3C108.016 204.411 107.96 204.522 107.904 204.632C100.599 222.344 107.179 237.566 107.179 237.566C108.016 218.415 120.228 215.592 120.228 215.592C120.228 215.592 125.359 213.544 126.418 207.566ZM53.8685 198.655C57.4932 200.758 62.1774 198.931 64.0734 195.168C64.9657 193.396 65.0214 191.348 64.4637 189.577C64.3894 189.356 64.2965 189.116 64.1849 188.858C63.6273 187.585 62.7351 186.533 61.564 185.703C61.5083 185.647 61.4525 185.592 61.3409 185.481C49.8535 174.965 36.3027 175.629 36.3027 175.629C50.7457 181.718 49.4631 191.736 49.4631 191.736C49.4631 191.736 49.5746 196.164 53.8685 198.655ZM285.737 277.75C283.451 279.909 283.786 283.617 286.128 285.665C287.243 286.717 288.693 287.159 290.087 287.159C290.273 287.159 290.477 287.141 290.7 287.104C291.704 286.938 292.652 286.55 293.489 285.886C293.563 285.849 293.619 285.813 293.656 285.776C303.693 279.798 306.036 270.001 306.036 270.001C298.619 279.023 291.648 276.034 291.648 276.034C291.648 276.034 288.414 275.204 285.737 277.75ZM291.871 194.171C290.7 191.791 287.633 191.072 285.291 192.4C284.176 193.009 283.395 194.061 283.061 195.168C283.023 195.315 282.986 195.481 282.949 195.666C282.838 196.496 282.893 197.382 283.228 198.212C283.228 198.286 283.228 198.341 283.228 198.378C285.514 208.009 292.819 212.437 292.819 212.437C287.41 204.134 291.704 199.319 291.704 199.319C291.704 199.319 293.21 196.994 291.871 194.171ZM385.611 142.142C389.18 141.423 391.188 137.604 390.24 134.117C389.794 132.401 388.679 131.072 387.284 130.242C387.099 130.131 386.894 130.021 386.671 129.91C385.612 129.412 384.385 129.19 383.214 129.356C383.102 129.356 383.009 129.338 382.935 129.301C369.384 128.969 360.908 137.05 360.908 137.05C373.845 132.843 378.752 140.094 378.752 140.094C378.752 140.094 381.373 142.917 385.611 142.142ZM261.145 20.8703C261.145 16.7744 257.242 13.6748 253.115 13.9516C251.052 14.1176 249.323 15.0032 248.04 16.387C247.855 16.5715 247.687 16.7744 247.539 16.9958C246.758 18.1028 246.256 19.3759 246.145 20.7596C246.089 20.8703 246.089 20.9257 246.033 21.0364C242.631 36.0916 249.936 47.3277 249.936 47.3277C247.985 31.9403 257.353 28.1212 257.353 28.1212C257.353 28.1212 261.089 25.7965 261.145 20.8703ZM89.502 196.883C88.4983 193.562 84.5947 192.013 81.3046 193.23C79.7432 193.839 78.5164 195.002 77.8472 196.441C77.7357 196.588 77.6614 196.791 77.6242 197.049C77.2338 198.101 77.1223 199.264 77.4011 200.426C77.4011 200.5 77.4011 200.573 77.4011 200.647C78.3491 213.544 86.9926 220.85 86.9926 220.85C81.6392 208.95 88.2194 203.581 88.2194 203.581C88.2194 203.581 90.6731 200.813 89.502 196.883ZM340.498 106.054C335.368 106.663 332.189 111.921 333.137 116.958C333.639 119.393 335.089 121.386 336.985 122.714C337.208 122.899 337.487 123.065 337.821 123.213C339.271 124.043 340.944 124.43 342.673 124.375C342.84 124.375 342.952 124.43 343.063 124.43C362.19 126.257 375.016 115.574 375.016 115.574C356.279 120.334 350.034 109.541 350.034 109.541C350.034 109.541 346.576 105.334 340.498 106.054ZM34.1279 137.216C36.9719 137.77 39.6486 135.5 39.9832 132.677C40.1504 131.238 39.7601 129.91 38.9236 128.914C38.8493 128.766 38.7377 128.618 38.589 128.471C37.9756 127.807 37.1392 127.308 36.1912 127.032C36.1168 126.995 36.0425 126.958 35.9681 126.921C26.042 122.659 17.287 126.146 17.287 126.146C28.1611 126.81 29.611 133.674 29.611 133.674C29.611 133.674 30.7262 136.552 34.1279 137.216ZM161.661 105.722C161.159 100.63 155.973 97.3087 150.899 98.1943C148.445 98.6371 146.382 99.9655 144.988 101.792C144.802 102.013 144.635 102.29 144.486 102.622C143.649 104.061 143.147 105.667 143.203 107.382C143.203 107.548 143.147 107.659 143.147 107.77C140.861 126.644 151.178 139.541 151.178 139.541C146.939 120.943 157.869 115.021 157.869 115.021C157.869 115.021 162.219 111.755 161.661 105.722ZM57.1586 149.781C54.2589 148.674 50.9688 150.555 50.0208 153.544C49.5746 155.039 49.7419 156.533 50.3553 157.806C50.4297 157.954 50.5412 158.12 50.6899 158.304C51.1918 159.135 52.0283 159.854 52.9763 160.352C53.0134 160.389 53.0692 160.426 53.1436 160.463C62.9581 166.994 72.9957 164.946 72.9957 164.946C61.5083 162.068 61.2852 154.43 61.2852 154.43C61.2852 154.43 60.6718 151.164 57.1586 149.781ZM123.797 79.0986C123.964 74.7813 120.005 71.4049 115.656 71.571C113.537 71.6817 111.641 72.5673 110.246 74.0064C110.061 74.154 109.893 74.3385 109.745 74.5599C108.852 75.6669 108.295 76.9953 108.127 78.4897C108.072 78.6004 108.072 78.6558 108.016 78.7665C103.945 94.3752 111.194 106.386 111.194 106.386C109.689 90.2793 119.615 86.5155 119.615 86.5155C119.615 86.5155 123.63 84.2461 123.797 79.0986ZM204.321 162.345C203.039 168.046 199.525 170.592 199.525 170.592C199.525 170.592 199.544 170.611 199.581 170.648C198.689 171.367 198.299 172.529 198.577 173.636C198.968 175.242 200.641 176.183 202.202 175.795C202.983 175.574 203.596 175.076 203.987 174.467C204.061 174.393 204.117 174.301 204.154 174.19C204.377 173.747 204.879 172.806 204.823 172.253C204.823 172.253 206.44 166.109 204.321 162.345ZM420.632 148.452C414.274 146.736 411.653 142.696 411.653 142.696C411.653 142.696 411.635 142.714 411.598 142.751C410.817 141.755 409.59 141.257 408.252 141.533C406.467 141.866 405.352 143.637 405.742 145.408C405.91 146.238 406.412 146.958 407.081 147.401C407.155 147.474 407.248 147.53 407.36 147.567C407.917 147.843 408.865 148.452 409.479 148.452C409.479 148.452 416.282 150.5 420.632 148.452ZM267.056 105.999C260.42 108.6 255.513 106.718 255.513 106.718C255.513 106.755 255.494 106.792 255.457 106.829C254.175 106.441 252.725 106.774 251.721 107.881C250.438 109.32 250.55 111.589 252 112.862C252.725 113.526 253.673 113.803 254.565 113.803C254.676 113.803 254.788 113.785 254.899 113.748C255.569 113.692 256.796 113.582 257.297 113.139C257.297 113.139 264.603 110.593 267.056 105.999ZM142.813 117.844C135.898 125.039 128.537 125.648 128.537 125.648C128.537 125.648 128.537 125.685 128.537 125.759C126.697 126.035 125.08 127.364 124.466 129.246C123.686 131.902 125.191 134.67 127.868 135.445C129.151 135.832 130.489 135.666 131.604 135.113C131.753 135.039 131.902 134.947 132.05 134.836C132.775 134.338 134.337 133.508 134.727 132.677C134.727 132.677 142.423 125.15 142.813 117.844ZM85.5985 32.4385C79.0741 37.0325 73.2746 36.4237 73.2746 36.4237C73.2746 36.4237 73.256 36.4606 73.2188 36.5344C71.7131 36.479 70.2633 37.2539 69.5383 38.693C68.4788 40.6303 69.2595 43.0104 71.2113 44.062C72.215 44.5602 73.2745 44.6155 74.2225 44.3388C74.3341 44.3019 74.4642 44.2465 74.6129 44.1727C75.2821 43.8959 76.6204 43.4531 77.0108 42.8443C77.0108 42.8443 84.2044 38.0842 85.5985 32.4385ZM191.886 124.264C196.793 127.087 198.075 131.017 198.075 131.017C198.075 131.017 198.094 130.998 198.131 130.962C198.522 131.958 199.47 132.677 200.641 132.733C202.202 132.843 203.54 131.626 203.652 130.076C203.652 129.301 203.429 128.637 202.927 128.083C202.89 128.01 202.834 127.936 202.76 127.862C202.369 127.53 201.7 126.81 201.198 126.7C201.198 126.7 196.012 123.489 191.886 124.264ZM292.987 22.1987C282.949 19.6526 278.711 13.3981 278.711 13.3981C278.711 13.3981 278.674 13.435 278.599 13.5088C277.428 11.959 275.421 11.1841 273.358 11.6269C270.569 12.2357 268.841 15.0032 269.454 17.7707C269.733 19.0991 270.569 20.2061 271.685 20.9257C271.796 21.0364 271.945 21.1286 272.131 21.2024C272.967 21.6452 274.473 22.5308 275.477 22.4755C275.477 22.4755 286.183 25.5751 292.987 22.1987ZM58.2181 140.759C63.0139 145.685 63.237 150.666 63.237 150.666C63.237 150.666 63.2555 150.666 63.2927 150.666C63.46 151.939 64.2965 153.102 65.6348 153.544C67.4193 154.153 69.371 153.212 69.9844 151.441C70.319 150.555 70.2633 149.67 69.8729 148.895C69.8357 148.784 69.78 148.674 69.7056 148.563C69.371 148.065 68.8134 146.958 68.2558 146.681C68.2558 146.681 63.2927 141.201 58.2181 140.759ZM281.109 124.652C272.298 126.312 266.722 122.936 266.722 122.936C266.722 122.936 266.684 122.954 266.61 122.991C265.16 122.216 263.264 122.327 261.814 123.434C259.863 124.928 259.472 127.696 260.978 129.633C261.759 130.629 262.762 131.183 263.878 131.349C264.026 131.386 264.194 131.404 264.379 131.404C265.16 131.46 266.722 131.626 267.447 131.183C267.447 131.183 276.982 129.799 281.109 124.652ZM42.2137 157.806C35.745 160.408 30.9493 158.692 30.9493 158.692C30.9493 158.692 30.9307 158.71 30.8935 158.747C29.6109 158.415 28.2168 158.747 27.3246 159.799C26.042 161.238 26.2093 163.452 27.6592 164.725C28.3841 165.334 29.2206 165.611 30.1128 165.555C30.2244 165.555 30.3359 165.537 30.4474 165.5C31.1166 165.445 32.2876 165.334 32.7895 164.891C32.7895 164.891 39.8716 162.345 42.2137 157.806ZM167.461 26.6821C160.658 19.8187 160.267 12.7892 160.267 12.7892C160.267 12.7892 160.23 12.7892 160.156 12.7892C159.933 10.9627 158.706 9.35752 156.81 8.74867C154.3 7.91842 151.512 9.30217 150.676 11.8483C150.285 13.066 150.397 14.339 150.899 15.446C150.973 15.5936 151.066 15.7412 151.178 15.8888C151.624 16.6084 152.404 18.1028 153.241 18.4903C153.241 18.4903 160.379 26.1286 167.461 26.6821ZM161.271 12.2357C169.747 11.2394 174.933 14.8372 174.933 14.8372C174.933 14.8372 174.952 14.8003 174.989 14.7265C176.383 15.5567 178.168 15.6121 179.617 14.6711C181.569 13.3427 182.127 10.6859 180.789 8.74867C180.175 7.75237 179.171 7.14353 178.168 6.92213C178.019 6.88523 177.87 6.86677 177.721 6.86677C176.941 6.75607 175.491 6.53467 174.766 6.86677C174.766 6.86677 165.509 7.58633 161.271 12.2357ZM91.5653 40.6856C95.3573 35.4827 99.9857 34.4864 99.9857 34.4864C99.9857 34.4864 99.9857 34.468 99.9857 34.4311C101.157 34.099 102.105 33.1027 102.328 31.8296C102.607 30.0584 101.38 28.3979 99.5954 28.1212C98.7589 27.9551 97.9225 28.1765 97.2533 28.6747C97.1418 28.7116 97.0488 28.7669 96.9745 28.8407C96.5284 29.2282 95.6361 29.8924 95.4688 30.5012C95.4688 30.5012 91.1192 35.9809 91.5653 40.6856ZM103.945 246.256C100.376 242.879 100.042 239.226 100.042 239.226C100.042 239.226 100.023 239.226 99.9857 239.226C99.8742 238.341 99.205 237.51 98.257 237.234C96.9187 236.846 95.5246 237.566 95.1342 238.894C94.9112 239.503 95.0227 240.167 95.3015 240.721C95.3387 240.794 95.3759 240.868 95.413 240.942C95.6919 241.33 96.0822 242.104 96.5283 242.27C96.5283 242.27 100.32 246.09 103.945 246.256ZM61.7871 45.8332C57.549 51.2021 52.5859 52.0878 52.5859 52.0878C52.5859 52.0878 52.5859 52.1246 52.5859 52.1984C51.3033 52.4752 50.2996 53.4715 50.0208 54.8553C49.6304 56.6818 50.8572 58.5084 52.7532 58.8405C53.6454 59.0619 54.5377 58.8405 55.2626 58.3977C55.3741 58.3239 55.4671 58.2501 55.5414 58.1763C56.0433 57.7888 57.0471 57.1246 57.2701 56.5158C57.2701 56.5158 62.0659 50.87 61.7871 45.8332ZM329.122 71.9031C329.122 71.9031 352.543 79.2093 350.201 97.4194C350.201 97.4194 346.632 107.161 340.442 105.168C334.252 103.231 332.022 93.9324 338.992 90.1686C345.907 86.3494 336.316 73.5082 329.122 71.9031ZM319.14 114.744C319.14 114.744 348.528 126.534 343.677 149.725C343.677 149.725 338.156 161.902 330.405 158.747C322.598 155.592 320.702 143.471 330.014 139.264C339.271 135.057 328.23 117.567 319.14 114.744ZM122.793 269.835C122.793 269.835 111.027 248.027 125.749 236.403C125.749 236.403 135.285 231.865 138.352 237.621C141.475 243.433 136.456 251.735 128.704 249.632C120.953 247.473 118.723 263.58 122.793 269.835ZM427.268 203.691C427.268 203.691 432.454 221.736 419.628 227.99C419.628 227.99 411.821 229.872 410.482 225.057C409.144 220.297 414.219 214.928 419.628 217.75C425.037 220.518 429.275 209.005 427.268 203.691ZM203.094 189.467C203.094 189.467 210.344 221.237 187.592 230.813C187.592 230.813 173.929 233.359 172.033 224.891C170.137 216.477 179.394 207.732 188.484 213.046C197.629 218.415 206.05 198.821 203.094 189.467ZM234.434 110.814C234.434 110.814 215.251 107.825 214.916 93.3235C214.916 93.3235 216.478 85.2978 221.552 86.128C226.683 86.9583 229.527 93.877 224.564 97.6962C219.601 101.515 228.634 110.371 234.434 110.814ZM330.795 98.8585C330.795 98.8585 320.757 130.187 295.942 126.976C295.942 126.976 282.726 122.272 285.458 113.969C288.135 105.667 300.738 102.678 305.924 111.976C311.054 121.275 328.564 108.434 330.795 98.8585ZM188.094 99.7441C188.094 99.7441 160.936 90.0025 164.561 68.6928C164.561 68.6928 169.189 57.4567 176.383 60.0582C183.577 62.6596 185.752 73.6743 177.387 77.8255C169.078 81.9214 179.729 97.4748 188.094 99.7441ZM95.8034 104.227C95.8034 104.227 113.704 103.176 116.882 116.183C116.882 116.183 117.05 123.711 112.31 123.987C107.57 124.264 103.61 118.508 107.347 114.135C111.083 109.762 101.157 103.453 95.8034 104.227ZM109.075 243.267C109.075 243.267 112.254 218.747 130.991 217.75C130.991 217.75 141.419 219.466 140.527 225.998C139.69 232.474 130.768 236.348 125.693 230.204C120.619 224.005 109.41 235.85 109.075 243.267ZM193.224 223.839C193.224 223.839 208.894 227.99 207.89 240.056C207.89 240.056 205.883 246.588 201.7 245.481C197.574 244.318 195.845 238.285 200.306 235.573C204.767 232.861 198.02 224.669 193.224 223.839ZM131.214 146.183C131.214 146.183 147.943 144.467 151.456 156.589C151.456 156.589 151.903 163.618 147.441 164.061C142.98 164.504 139.077 159.245 142.367 154.983C145.713 150.722 136.177 145.242 131.214 146.183ZM370.722 289.761C370.722 289.761 342.952 269.171 354.606 245.979C354.606 245.979 363.808 234.632 371.168 240.112C378.529 245.591 377.191 258.986 366.15 260.868C355.108 262.75 361.912 284.281 370.722 289.761ZM277.15 209.669C277.15 209.669 260.141 192.179 270.96 177.29C270.96 177.29 278.711 170.426 283.228 175.131C287.689 179.78 285.235 188.968 277.317 189.024C269.398 189.079 271.629 204.854 277.15 209.669ZM41.6003 126.146C41.6003 126.146 69.2595 106.109 87.9964 123.766C87.9964 123.766 96.0822 135.722 88.7213 141.035C81.3604 146.294 69.0364 141.146 70.4306 130.242C71.8804 119.393 49.4073 119.504 41.6003 126.146ZM341.167 227.603C341.167 227.603 325.33 223.175 324.772 217.363C324.159 211.496 314.958 215.647 316.965 221.016C318.973 226.385 334.252 233.747 341.167 227.603ZM203.596 130.131C203.596 130.131 179.06 132.843 174.933 125.039C170.751 117.179 160.267 128.139 166.122 134.504C171.978 140.925 197.518 142.585 203.596 130.131ZM195.901 266.458C195.901 266.458 181.346 254.281 183.577 247.861C185.807 241.44 174.097 241.385 173.595 248.027C173.093 254.614 185.64 269.669 195.901 266.458ZM382.879 274.373C382.879 274.373 397.601 258.211 404.962 261.034C412.378 263.802 412.88 250.407 405.185 249.577C397.545 248.746 379.533 262.473 382.879 274.373ZM174.877 105.002C174.877 105.002 169.022 114.965 164.896 114.301C160.769 113.692 161.996 120.666 166.067 120.279C170.137 119.836 177.944 110.759 174.877 105.002ZM152.293 90.0025C152.293 90.0025 167.517 95.0947 167.795 100.851C168.074 106.552 177.331 103.01 175.602 97.6408C173.929 92.2719 159.319 84.3015 152.293 90.0025ZM294.046 298.119C294.046 298.119 281.109 302.27 277.986 298.506C274.919 294.742 270.402 301.772 274.306 304.595C278.153 307.417 292.15 305.536 294.046 298.119ZM350.09 201.367C350.09 201.367 354.216 212.88 350.87 215.758C347.524 218.636 354.049 222.455 356.502 218.913C358.956 215.315 356.893 202.861 350.09 201.367ZM251.498 60.6117C251.498 60.6117 246.089 73.3975 241.07 73.2868C236.051 73.1761 238.616 81.3126 243.412 80.2056C248.208 79.0986 256.015 67.0323 251.498 60.6117ZM225.065 5.59373C225.065 5.59373 211.682 17.3833 205.938 14.4497C200.195 11.5715 198.577 22.3648 204.711 23.7485C210.901 25.0769 226.738 15.5567 225.065 5.59373ZM128.816 202.584C128.816 202.584 144.932 190.352 151.178 194.116C157.423 197.88 160.156 185.758 153.297 183.765C146.438 181.718 127.756 191.238 128.816 202.584ZM222.389 144.135C222.389 144.135 240.233 139.873 244.025 145.297C247.817 150.666 254.565 141.644 249.658 137.438C244.695 133.286 225.735 134.338 222.389 144.135ZM430 197.326C430 197.326 409.423 207.068 403.4 201.533C397.378 195.943 391.578 208.673 398.66 212.437C405.687 216.256 428.494 210.057 430 197.326ZM207.388 186.81C207.388 186.81 211.292 201.92 206.719 205.186C202.146 208.452 210.009 214.042 213.522 209.835C217.091 205.573 215.864 189.467 207.388 186.81ZM174.766 89.6151C174.766 89.6151 187.703 83.914 191.328 87.4564C194.953 90.9988 198.8 83.2498 194.451 80.7591C190.157 78.2683 175.937 81.7554 174.766 89.6151ZM323.824 196.773C323.824 196.773 325.999 213.267 337.096 217.308C348.194 221.293 347.413 204.743 341.056 204.577C334.754 204.411 333.806 206.348 333.806 206.348C333.806 206.348 324.215 198.765 323.824 196.773ZM191.328 243.876C191.328 243.876 191.495 254.06 197.964 257.27C204.433 260.481 205.102 250.352 201.254 249.798C197.462 249.245 196.737 250.352 196.737 250.352C196.737 250.352 191.384 245.093 191.328 243.876ZM347.915 266.403C347.915 266.403 340.275 272.602 341.669 279.3C343.063 286.052 351.149 280.573 349.309 277.418C347.413 274.207 346.186 274.318 346.186 274.318C346.186 274.318 347.022 267.233 347.915 266.403ZM360.127 296.126C360.127 296.126 345.461 297.953 341.836 307.583C338.212 317.214 352.878 316.661 353.045 311.126C353.268 305.646 351.539 304.761 351.539 304.761C351.539 304.761 358.287 296.458 360.127 296.126ZM134.616 188.858C134.616 188.858 126.808 184.706 121.678 188.193C116.492 191.681 123.909 196.441 125.916 193.839C127.924 191.182 127.422 190.186 127.422 190.186C127.422 190.186 133.612 188.415 134.616 188.858ZM368.715 133.784C368.715 133.784 365.704 144.024 371.168 149.227C376.633 154.43 380.481 144.522 376.801 142.806C373.12 141.091 372.061 141.921 372.061 141.921C372.061 141.921 368.436 135.057 368.715 133.784ZM128.649 42.7336C128.649 42.7336 119.671 58.0102 126.362 68.5267C133.054 79.0432 143.259 64.5969 138.017 60.3903C132.831 56.1837 130.768 57.1799 130.768 57.1799C130.768 57.1799 127.645 44.6708 128.649 42.7336ZM126.92 34.0436C126.92 34.0436 135.619 50.2059 148.612 50.0952C161.606 49.9845 154.356 33.2134 147.776 35.4827C141.196 37.6967 140.917 40.0768 140.917 40.0768C140.917 40.0768 128.091 35.9809 126.92 34.0436ZM99.6512 78.7665C99.6512 78.7665 92.9037 65.8699 82.643 65.8699C72.3823 65.8146 77.9588 79.1539 83.1449 77.4381C88.3867 75.7222 88.6098 73.8957 88.6098 73.8957C88.6098 73.8957 98.7032 77.272 99.6512 78.7665ZM312.616 58.6744C312.616 58.6744 309.27 72.1798 316.631 78.6558C324.047 85.1317 328.564 72.0138 323.657 69.9658C318.806 67.9179 317.467 69.1356 317.467 69.1356C317.467 69.1356 312.337 60.3349 312.616 58.6744ZM163.78 76.0543C163.78 76.0543 147.274 71.6817 139.188 80.4823C131.102 89.283 147.107 94.9287 149.672 89.1169C152.293 83.3052 150.843 81.6447 150.843 81.6447C150.843 81.6447 161.717 75.6669 163.78 76.0543ZM384.775 186.976C384.775 186.976 382.544 200.094 390.073 205.684C397.545 211.274 400.835 198.489 396.039 196.939C391.299 195.334 390.128 196.607 390.128 196.607C390.128 196.607 384.608 188.636 384.775 186.976ZM319.029 253.285C319.029 253.285 321.705 236.569 312.058 229.485C302.467 222.4 298.34 238.728 304.474 240.721C310.608 242.713 312.114 241.108 312.114 241.108C312.114 241.108 319.196 251.237 319.029 253.285ZM318.36 242.104C318.36 242.104 327.17 245.868 332.412 241.662C337.654 237.4 329.234 232.916 327.282 235.961C325.33 239.005 325.999 240.056 325.999 240.056C325.999 240.056 319.475 242.492 318.36 242.104ZM115.879 101.847C115.879 101.847 120.73 114.965 130.545 116.183C140.359 117.456 136.623 104.061 131.437 105.058C126.251 106.109 125.805 107.825 125.805 107.825C125.805 107.825 116.548 103.397 115.879 101.847ZM214.972 281.514C214.972 281.514 208.057 276.92 208.057 274.484C208.113 272.104 209.898 269.724 212.351 270.831C214.861 271.938 214.359 275.314 213.745 278.248C213.188 281.182 214.972 281.514 214.972 281.514ZM153.966 139.652C153.966 139.652 169.134 143.249 170.695 147.511C172.257 151.773 170.695 157.087 165.621 156.755C160.49 156.423 159.096 150.223 158.26 144.688C157.367 139.098 153.966 139.652 153.966 139.652ZM310.106 84.0247C310.106 84.0247 321.203 93.0468 320.813 97.198C320.367 101.349 316.91 105.113 312.839 102.844C308.768 100.519 310.106 94.818 311.612 89.8918C313.118 84.9103 310.106 84.0247 310.106 84.0247ZM243.468 320.48C243.468 320.48 234.155 309.576 235.27 305.536C236.441 301.495 240.568 298.34 244.193 301.329C247.817 304.318 245.42 309.742 243.077 314.392C240.68 319.041 243.468 320.48 243.468 320.48ZM233.04 48.7668C233.04 48.7668 229.861 39.1912 231.701 36.8665C233.542 34.5418 237.111 33.6008 238.672 36.479C240.233 39.4126 237.222 42.3461 234.378 44.7262C231.59 47.1062 233.04 48.7668 233.04 48.7668ZM119.392 44.2834C119.392 44.2834 118.276 36.2576 120.061 34.7078C121.845 33.158 124.801 32.8813 125.582 35.372C126.418 37.9181 123.63 39.8 121.065 41.2945C118.5 42.789 119.392 44.2834 119.392 44.2834ZM397.545 164.836C397.545 164.836 406.077 158.304 409.088 159.301C412.044 160.297 414.274 163.452 411.932 165.998C409.534 168.6 405.519 166.662 402.118 164.725C398.716 162.788 397.545 164.836 397.545 164.836ZM308.155 268.396C308.155 268.396 319.698 278.691 319.084 283.174C318.415 287.658 314.512 291.643 310.162 288.931C305.868 286.218 307.597 280.13 309.493 274.816C311.333 269.503 308.155 268.396 308.155 268.396ZM322.096 292.307C322.096 292.307 315.739 305.978 311.333 306.698C306.928 307.417 302.076 304.927 303.359 300.111C304.641 295.351 310.887 295.185 316.408 295.406C321.928 295.628 322.096 292.307 322.096 292.307ZM315.014 62.5489C315.014 62.5489 319.921 49.431 323.992 48.49C328.007 47.5491 332.691 49.5417 331.855 54.025C330.962 58.5637 325.163 59.1172 320.032 59.2833C314.902 59.5047 315.014 62.5489 315.014 62.5489ZM288.079 55.2427C288.079 55.2427 284.176 67.5304 280.551 68.5821C276.926 69.6337 272.521 68.0286 273.079 63.8773C273.692 59.7261 278.934 58.8958 283.618 58.5083C288.302 58.0655 288.079 55.2427 288.079 55.2427ZM152.906 144.744C152.906 144.744 142.144 146.127 140.08 143.747C137.961 141.423 137.627 137.548 141.028 136.497C144.43 135.445 146.884 139.153 148.891 142.53C150.843 145.906 152.906 144.744 152.906 144.744ZM233.374 66.2574C233.374 66.2574 237.166 53.4162 240.958 52.2538C244.695 51.0914 249.323 52.6413 248.765 57.0139C248.264 61.3312 242.799 62.2722 237.947 62.8257C233.096 63.3238 233.374 66.2574 233.374 66.2574ZM228.69 206.957C228.69 206.957 227.073 217.031 224.285 218.249C221.552 219.522 217.928 218.747 217.928 215.426C217.872 212.105 221.943 210.832 225.567 210.001C229.192 209.116 228.69 206.957 228.69 206.957ZM330.683 126.866C330.683 126.866 322.43 139.818 317.913 139.928C313.396 140.039 308.824 136.884 310.776 132.235C312.727 127.641 319.029 128.305 324.549 129.246C330.07 130.131 330.683 126.866 330.683 126.866ZM231.701 112.309C231.701 112.309 224.118 119.67 223.839 122.825C223.616 125.925 225.735 134.504 232.371 134.67C239.062 134.836 238.449 127.585 235.493 122.548C232.538 117.511 231.701 112.309 231.701 112.309ZM75.8955 100.685C75.8955 100.685 65.0214 103.563 63.1812 106.331C61.2852 109.098 58.7758 118.065 64.7426 121.663C70.7651 125.205 74.0553 118.231 73.9995 112.087C73.9437 105.943 75.8955 100.685 75.8955 100.685ZM74.9475 188.692C74.9475 188.692 67.6423 192.455 66.7501 194.78C65.8579 197.05 65.4675 203.858 70.3748 205.518C75.2263 207.123 76.4531 201.588 75.4494 197.16C74.3898 192.788 74.9475 188.692 74.9475 188.692ZM284.064 103.508C284.064 103.508 294.102 101.239 295.886 98.7478C297.671 96.3124 300.348 88.1206 294.938 84.6889C289.529 81.2019 286.295 87.5118 286.183 93.1575C286.016 98.8032 284.064 103.508 284.064 103.508ZM184.971 35.5934C184.971 35.5934 180.231 39.8554 180.008 41.7373C179.785 43.6192 180.844 48.8774 184.859 49.1542C188.874 49.4309 188.707 45.003 187.034 41.848C185.417 38.7484 184.971 35.5934 184.971 35.5934ZM425.595 189.688C425.595 189.688 427.881 183.821 427.212 182.105C426.543 180.334 423.253 176.183 419.628 177.732C416.003 179.282 418.122 183.046 420.966 185.094C423.81 187.086 425.595 189.688 425.595 189.688ZM32.9568 72.3459C32.9568 72.3459 38.7006 74.9473 40.485 74.3938C42.3253 73.8957 46.6191 70.9068 45.3365 67.1983C43.9982 63.4899 40.0389 65.3718 37.8641 68.0839C35.6893 70.7407 32.9568 72.3459 32.9568 72.3459ZM340.498 41.3498C340.498 41.3498 336.706 50.6487 337.71 53.4162C338.714 56.239 343.844 62.881 349.643 60.5563C355.499 58.1763 352.153 52.0877 347.692 48.8221C343.23 45.5564 340.498 41.3498 340.498 41.3498ZM323.044 253.949C323.044 253.949 317.356 263.47 318.025 266.735C318.638 269.945 323.155 278.082 329.903 276.421C336.65 274.816 334.029 267.621 329.68 263.303C325.33 258.986 323.044 253.949 323.044 253.949ZM422.193 247.141C422.193 247.141 419.07 235.573 416.115 233.636C413.103 231.643 403.4 228.986 399.553 235.352C395.705 241.772 403.289 245.204 409.925 245.149C416.505 245.093 422.193 247.141 422.193 247.141ZM339.662 268.783C339.662 268.783 344.792 260.038 344.234 257.104C343.621 254.171 339.494 246.754 333.304 248.304C327.17 249.798 329.568 256.385 333.527 260.259C337.542 264.189 339.662 268.783 339.662 268.783ZM333.806 43.2318C333.806 43.2318 332.914 37.2539 331.576 36.0362C330.182 34.8739 325.442 32.9366 323.1 35.9809C320.757 38.9698 324.382 41.1284 327.728 41.5159C331.074 41.848 333.806 43.2318 333.806 43.2318ZM252.892 184.817C252.892 184.817 258.245 186.92 259.863 186.312C261.535 185.758 265.327 182.825 263.933 179.504C262.595 176.183 259.082 178.12 257.186 180.666C255.29 183.212 252.892 184.817 252.892 184.817ZM396.318 114.578C396.318 114.578 390.519 103.729 387.061 102.456C383.604 101.183 373.288 100.685 370.945 107.991C368.548 115.242 376.968 116.958 383.548 115.408C390.184 113.803 396.318 114.578 396.318 114.578ZM328.787 92.8807C328.787 92.8807 333.193 89.3383 333.472 87.6778C333.751 86.0173 333.026 81.3679 329.512 80.9805C325.999 80.5377 325.999 84.4675 327.282 87.235C328.62 90.0579 328.787 92.8807 328.787 92.8807ZM329.066 145.961C329.066 145.961 318.415 149.448 313.062 141.976C307.764 134.504 303.247 138.378 303.526 140.537C303.749 142.64 315.516 154.596 329.066 145.961ZM179.952 166.053C179.952 166.053 172.089 169.153 167.74 163.729C163.39 158.304 160.156 161.404 160.434 163.009C160.713 164.614 170.137 173.194 179.952 166.053ZM286.964 273.986C286.964 273.986 293.154 265.351 301.519 268.119C309.828 270.886 311.166 265.407 309.716 263.912C308.322 262.363 292.485 259.761 286.964 273.986ZM122.068 52.918C122.068 52.918 111.585 41.9034 117.775 31.0547C123.964 20.2061 116.604 16.8851 114.094 18.4349C111.529 19.9847 103.443 41.3498 122.068 52.918ZM260.755 54.5785C260.755 54.5785 267.781 50.1505 273.023 54.5785C278.209 58.9512 280.774 55.4087 280.217 53.8589C279.603 52.3645 268.896 45.8886 260.755 54.5785ZM220.549 197.88C220.549 197.88 227.854 196.164 231.032 201.422C234.155 206.736 237.389 204.411 237.334 202.972C237.278 201.533 230.084 192.843 220.549 197.88ZM383.214 123.877C383.214 123.877 390.351 120.556 394.757 125.316C399.107 130.131 401.895 127.087 401.56 125.593C401.226 124.098 391.969 116.681 383.214 123.877ZM262.539 230.038C262.539 230.038 274.25 225.665 280.551 233.747C286.853 241.828 291.704 237.344 291.314 234.964C290.979 232.584 277.261 219.743 262.539 230.038ZM273.636 95.4268C273.636 95.4268 275.532 80.3716 287.856 78.213C300.236 76.0543 298.117 68.3607 295.273 67.4197C292.485 66.4788 270.792 73.8403 273.636 95.4268ZM242.241 194.725C242.241 194.725 239.23 183.655 247.316 178.673C255.401 173.692 251.721 168.821 249.435 168.987C247.204 169.098 234.044 180.389 242.241 194.725ZM298.229 291.643C298.229 291.643 291.871 295.628 287.243 291.643C282.559 287.657 280.272 290.868 280.774 292.196C281.276 293.58 290.868 299.447 298.229 291.643ZM33.3472 114.689C33.3472 114.689 39.2582 103.397 49.6304 105.334C59.9468 107.216 60.5602 100.574 58.6085 98.9692C56.7125 97.4194 37.4737 96.9213 33.3472 114.689ZM298.452 70.5747C298.452 70.5747 306.259 77.3274 302.745 84.9657C299.288 92.6593 304.418 94.4305 306.036 93.2128C307.653 91.9951 311.724 77.1613 298.452 70.5747ZM206.607 52.3092C206.607 52.3092 208.28 63.6006 199.693 67.6411C191.161 71.6263 194.228 76.8292 196.458 76.9399C198.745 77.106 213.02 67.4197 206.607 52.3092ZM216.589 3.04762C216.589 3.04762 211.347 7.91843 206.217 5.04023C201.087 2.16203 199.525 5.59371 200.25 6.75607C200.975 7.97377 211.124 11.7376 216.589 3.04762ZM319.809 321.034C319.809 321.034 313.006 324.465 308.656 319.982C304.251 315.499 301.63 318.543 302.02 319.982C302.411 321.366 311.556 328.229 319.809 321.034ZM365.034 113.36C365.034 113.36 360.35 106.054 365.034 100.574C369.774 95.1501 365.982 92.4933 364.365 93.1021C362.748 93.6556 355.833 104.836 365.034 113.36ZM376.689 269.503C376.689 269.503 375.016 278.248 367.711 279.023C360.35 279.853 361.298 284.447 362.915 285.111C364.533 285.776 377.526 282.289 376.689 269.503ZM30.8378 184.706C30.8378 184.706 38.7563 186.035 39.6486 192.511C40.5408 198.987 44.6674 198.046 45.225 196.607C45.8384 195.168 42.3252 183.655 30.8378 184.706ZM222.054 165.279C222.054 165.279 208.448 161.57 208.169 150.113C207.834 138.6 200.473 139.485 199.191 141.921C197.964 144.356 201.812 165.002 222.054 165.279ZM74.5014 126.644C74.5014 126.644 69.9845 133.12 63.7946 131.128C57.549 129.135 56.6567 133.176 57.7163 134.283C58.7758 135.445 70.5421 137.271 74.5014 126.644ZM398.716 165.943C398.716 165.943 407.025 170.703 405.241 178.341C403.456 185.979 408.475 186.699 409.758 185.315C410.984 183.876 412.044 169.596 398.716 165.943ZM255.959 50.6487C255.959 50.6487 264.603 58.8405 260.141 67.5858C255.736 76.2757 261.591 78.6004 263.543 77.272C265.439 75.9436 270.96 59.0065 255.959 50.6487ZM110.86 166.718C110.86 166.718 117.83 158.194 126.195 161.625C134.615 165.002 136.288 159.467 134.95 157.806C133.612 156.146 117.44 152.437 110.86 166.718ZM257.13 266.735C257.13 266.735 250.606 260.536 253.952 254.005C257.297 247.473 252.892 245.702 251.442 246.698C249.992 247.695 245.866 260.425 257.13 266.735ZM108.295 172.308C108.295 172.308 101.603 162.234 107.96 154.596C114.373 146.958 109.075 143.36 106.845 144.19C104.614 145.076 95.3015 160.685 108.295 172.308ZM114.317 168.046C114.317 168.046 126.418 167.327 129.82 176.57C133.277 185.813 139.021 183.101 139.355 180.777C139.746 178.507 130.879 162.788 114.317 168.046ZM162.832 213.322C162.832 213.322 155.304 211.551 154.914 205.241C154.468 198.931 150.453 199.596 149.783 200.924C149.17 202.308 151.735 213.544 162.832 213.322ZM66.8059 109.486C66.8059 109.486 69.148 94.4859 81.5835 92.6593C94.0747 90.8881 92.1787 83.0838 89.3905 82.0321C86.6023 81.0358 64.631 87.7332 66.8059 109.486ZM51.1918 129.19C51.1918 129.19 51.9167 139.098 44.2212 142.032C36.5257 144.965 38.8679 149.67 40.8196 149.947C42.7156 150.223 55.7645 142.751 51.1918 129.19ZM308.378 189.3C308.378 189.3 310.162 176.404 311.166 173.858C312.17 171.367 321.427 172.363 317.635 179.227C313.843 186.035 310.608 182.769 308.378 189.3ZM335.814 165.223C335.814 165.223 329.345 176.681 327.449 178.729C325.553 180.721 317.244 176.349 323.378 171.312C329.457 166.275 331.297 170.537 335.814 165.223ZM264.491 191.127C264.491 191.127 260.755 203.415 259.361 205.684C257.967 208.009 249.156 205.573 253.896 199.485C258.636 193.452 261.257 197.105 264.491 191.127ZM292.429 229.761C292.429 229.761 277.205 218.415 274.696 215.37C272.186 212.271 279.994 201.422 286.072 210.998C292.094 220.573 285.682 222.289 292.429 229.761ZM215.474 243.322C215.474 243.322 221.608 256.717 222.166 259.706C222.723 262.75 213.243 267.233 212.742 258.488C212.24 249.687 217.258 250.905 215.474 243.322ZM0 109.375C0 109.375 25.0383 102.069 30.4474 101.847C35.9123 101.626 41.4888 119.061 25.9863 117.788C10.428 116.515 13.7738 108.102 0 109.375ZM197.964 114.357C197.964 114.357 218.039 107.493 222.5 107.106C226.906 106.774 232.092 120.722 219.378 120.279C206.719 119.836 209.117 112.807 197.964 114.357ZM43.1059 165.279C43.1059 165.279 36.1354 177.123 34.1279 179.171C32.1204 181.219 23.5326 176.515 30.0013 171.422C36.47 166.275 38.2544 170.758 43.1059 165.279ZM363.138 191.57C363.138 191.57 381.429 198.987 384.775 201.367C388.065 203.802 383.102 216.754 374.514 208.728C365.927 200.703 371.893 197.271 363.138 191.57ZM92.9036 131.847C92.9036 131.847 113.369 127.475 117.663 127.641C122.013 127.751 125.47 141.976 113.146 140.094C100.822 138.212 104.001 131.626 92.9036 131.847ZM59.0546 107.327C59.0546 107.327 49.5189 121.607 46.8422 123.987C44.2212 126.423 33.849 119.947 42.2695 114.024C50.6899 108.102 52.6417 113.803 59.0546 107.327ZM200.25 198.71C200.25 198.71 192.666 210.334 190.547 212.326C188.428 214.263 180.008 209.116 186.755 204.245C193.503 199.374 195.12 203.968 200.25 198.71ZM385.444 87.4564C385.444 87.4564 369.83 86.5708 366.763 85.6299C363.64 84.6336 364.031 73.7296 372.507 77.4934C380.983 81.3126 377.414 85.4085 385.444 87.4564ZM304.084 58.6744C304.084 58.6744 283.674 48.7114 280.049 45.6671C276.425 42.6782 283.172 28.1765 292.429 38.0842C301.63 47.9365 294.492 51.4236 304.084 58.6744ZM344.234 128.471C344.234 128.471 360.462 141.81 363.083 145.297C365.648 148.84 356.447 160.408 350.257 149.559C344.123 138.655 351.316 137.05 344.234 128.471ZM129.151 209.669C129.151 209.669 136.456 208.673 137.515 211.883C138.575 215.149 145.099 217.418 146.884 211.773C148.668 206.127 135.898 199.872 129.151 209.669ZM234.769 105.168C234.769 105.168 242.185 112.862 239.174 116.903C236.218 120.943 239.062 130.574 247.316 127.862C255.569 125.15 252.223 104.726 234.769 105.168ZM354.662 284.004C354.662 284.004 360.016 289.373 357.952 292.307C355.889 295.185 358.008 301.993 363.808 299.945C369.663 297.953 366.986 283.506 354.662 284.004ZM84.8736 211.164C84.8736 211.164 92.0114 218.304 89.2789 222.178C86.5465 226.053 89.3905 235.13 97.1418 232.418C104.949 229.706 101.38 210.444 84.8736 211.164ZM182.406 199.374C182.406 199.374 186.7 195.112 189.042 196.717C191.44 198.323 196.904 196.607 195.231 192.013C193.559 187.363 181.904 189.577 182.406 199.374ZM243.524 290.536C243.524 290.536 240.903 283.894 243.747 282.122C246.646 280.351 247.316 273.654 241.46 273.322C235.661 272.934 232.594 286.44 243.524 290.536ZM127.31 260.37C127.31 260.37 132.496 260.038 133.054 262.363C133.667 264.743 138.129 266.68 139.69 262.805C141.251 258.876 132.552 253.839 127.31 260.37ZM406.356 215.481C406.356 215.481 398.772 220.905 395.649 217.916C392.471 214.872 383.771 216.201 385.221 223.562C386.615 230.924 404.683 230.426 406.356 215.481ZM22.0827 85.2424C22.0827 85.2424 22.975 90.5007 20.5771 91.3309C18.1792 92.2165 16.6178 97.032 20.8559 98.1943C25.094 99.3567 29.4437 89.8918 22.0827 85.2424ZM312.727 315.886C312.727 315.886 322.207 312.842 324.438 316.882C326.668 320.978 335.981 322.473 336.929 314.502C337.933 306.532 319.307 301.218 312.727 315.886ZM314.902 37.3093C314.902 37.3093 312.225 41.848 309.883 40.9624C307.541 40.1321 303.303 42.7336 305.701 46.276C308.155 49.8184 317.467 45.4457 314.902 37.3093ZM339.438 192.843C339.438 192.843 329.903 193.507 328.843 189.245C327.728 184.928 319.475 181.441 316.687 188.581C313.898 195.721 329.903 204.909 339.438 192.843ZM208.002 221.625C208.002 221.625 214.861 225.444 213.634 228.876C212.463 232.363 216.534 238.507 221.72 234.854C226.961 231.145 220.102 217.584 208.002 221.625ZM333.862 72.7333C333.862 72.7333 335.089 67.4197 337.71 67.5304C340.275 67.6411 343.621 63.7113 340.108 60.9438C336.595 58.2316 328.732 65.4825 333.862 72.7333ZM280.328 324.853C280.328 324.853 285.849 319.041 289.027 321.089C292.206 323.137 299.344 320.591 296.946 314.558C294.492 308.524 279.269 311.956 280.328 324.853ZM290.031 129.08C290.031 129.08 284.789 130.519 284.901 134.559C285.068 138.655 282.447 139.596 281.165 137.327C279.882 135.113 278.711 128.969 290.031 129.08ZM164.896 258.599C164.896 258.599 165.453 262.639 168.576 262.916C171.699 263.193 172.145 265.241 170.305 265.96C168.465 266.735 163.725 267.012 164.896 258.599ZM266.331 354.52C266.331 354.52 270.123 353.469 269.956 350.59C269.844 347.657 271.685 346.937 272.633 348.543C273.581 350.148 274.473 354.52 266.331 354.52ZM160.825 117.401C160.825 117.401 156.196 123.545 159.933 127.973C163.669 132.456 161.605 135.777 158.148 134.338C154.746 132.899 147.999 127.087 160.825 117.401ZM312.114 23.6932C312.114 23.6932 313.62 27.623 316.798 27.2356C319.921 26.8481 320.869 28.7854 319.196 29.8924C317.523 31.0547 312.839 32.3831 312.114 23.6932ZM379.477 92.2165C379.477 92.2165 382.433 94.7626 384.831 92.9914C387.173 91.2756 388.79 92.4379 388.009 94.0984C387.173 95.7589 383.994 98.9139 379.477 92.2165ZM195.845 11.7376C195.845 11.7376 192.109 8.80402 189.265 11.018C186.421 13.232 184.357 11.9036 185.305 9.80032C186.309 7.69702 190.045 3.71181 195.845 11.7376ZM61.8428 175.518C61.8428 175.518 59.3892 171.367 55.9318 172.474C52.4186 173.526 50.9687 171.588 52.6417 169.928C54.2589 168.323 59.2777 165.887 61.8428 175.518ZM65.579 183.267C65.579 183.267 69.7614 180.389 68.3673 176.902C66.9731 173.36 68.9249 171.755 70.7652 173.304C72.6054 174.909 75.5051 179.891 65.579 183.267ZM351.539 271.108C351.539 271.108 351.484 276.2 355.276 277.141C359.068 278.082 359.291 280.683 356.893 281.237C354.439 281.846 348.528 281.348 351.539 271.108ZM255.624 190.131C255.624 190.131 248.152 193.12 249.1 199.097C249.992 205.075 246.368 206.957 244.081 203.858C241.795 200.758 238.951 191.957 255.624 190.131ZM186.03 172.087C186.03 172.087 189.153 179.78 195.399 178.839C201.644 177.898 203.596 181.662 200.306 183.987C197.072 186.367 187.926 189.245 186.03 172.087ZM259.751 206.846C259.751 206.846 254.565 212.326 257.688 217.031C260.866 221.791 258.524 224.78 255.29 223.009C252.111 221.293 246.2 214.872 259.751 206.846ZM94.7439 100.353C94.7439 100.353 99.8742 95.6482 97.2533 91.1095C94.6324 86.5708 96.9745 83.914 99.8184 85.7406C102.662 87.5671 107.681 93.7663 94.7439 100.353ZM161.717 39.4679C161.717 39.4679 161.104 45.6671 165.565 47.1616C170.082 48.656 170.082 51.811 167.126 52.2538C164.115 52.6966 156.977 51.5342 161.717 39.4679ZM68.8134 70.7961C68.8134 70.7961 73.8322 77.9916 66.8059 85.6299C59.7238 93.3235 68.7576 93.7663 69.5941 89.6151C70.3748 85.4638 76.007 79.0432 68.8134 70.7961ZM111.194 155.814C111.194 155.814 114.094 148.175 123.797 149.504C133.444 150.832 129.039 143.692 125.414 145.297C121.734 146.847 113.76 145.961 111.194 155.814ZM301.965 215.758C301.965 215.758 297.671 207.677 306.036 200.647C314.344 193.618 305.032 191.957 303.638 196.164C302.244 200.371 295.608 206.293 301.965 215.758ZM359.848 202.363C359.848 202.363 366.428 206.736 363.083 215.481C359.737 224.171 367.432 221.625 366.707 217.861C366.038 214.153 368.603 206.902 359.848 202.363ZM166.847 232.197C166.847 232.197 169.468 239.005 162.163 243.82C154.858 248.636 162.107 250.85 163.613 247.639C165.119 244.429 171.03 240.333 166.847 232.197ZM258.134 199.762C258.134 199.762 267.781 204.632 264.603 217.031C261.424 229.429 271.462 224.725 269.956 219.743C268.395 214.817 270.737 204.522 258.134 199.762ZM137.738 66.7555C137.738 66.7555 143.092 59.0065 153.575 63.1024C164.115 67.1983 161.104 58.0102 156.587 58.7851C152.014 59.56 143.315 56.4051 137.738 66.7555ZM397.322 148.508C397.322 148.508 396.486 140.482 405.575 137.438C414.721 134.393 407.638 130.021 405.129 133.01C402.62 135.998 395.203 138.711 397.322 148.508ZM46.7306 64.0434C46.7306 64.0434 58.8873 60.8884 65.7464 74.0617C72.6054 87.1797 77.6799 75.4455 72.4938 72.3459C67.3077 69.1909 61.3967 58.5637 46.7306 64.0434ZM164.003 167.216C164.003 167.216 157.033 174.633 146.493 168.6C135.954 162.566 137.683 172.806 142.646 172.695C147.553 172.585 156.364 177.345 164.003 167.216ZM96.3053 232.252C96.3053 232.252 106.956 233.525 108.295 246.145C109.633 258.765 117.384 250.96 114.261 246.865C111.083 242.713 109.689 232.418 96.3053 232.252ZM259.026 225.776C259.026 225.776 254.509 239.282 237.501 237.676C220.549 236.016 228.746 248.138 234.992 245.149C241.237 242.16 255.234 243.156 259.026 225.776ZM401.616 150.389C401.616 150.389 414.163 152.216 415.334 167.05C416.505 181.884 425.818 172.972 422.249 168.046C418.68 163.175 417.397 150.998 401.616 150.389ZM233.486 149.393C233.486 149.393 228.021 154.153 221.05 149.116C214.024 144.08 214.47 151.496 217.983 151.773C221.497 152.05 227.352 156.035 233.486 149.393ZM214.693 272.436C214.693 272.436 225.846 276.034 224.619 289.816C223.393 303.543 233.319 296.846 230.809 291.809C228.3 286.717 229.025 275.425 214.693 272.436ZM269.008 128.305C268.896 127.917 272.633 146.404 265.606 151.552C258.58 156.644 254.788 160.961 258.301 166.275C261.759 171.588 279.492 170.814 278.321 154.873C277.15 138.932 270.346 131.958 269.008 128.305ZM114.819 109.32C115.154 109.209 98.8147 112.032 94.4651 105.833C90.1154 99.6888 86.435 96.3124 81.695 99.1906C76.955 102.124 77.2338 117.456 91.2307 116.792C105.283 116.128 111.529 110.427 114.819 109.32ZM282.782 282.787C283.061 283.119 271.294 264.909 276.648 256.551C281.945 248.193 284.176 241.994 278.209 237.787C272.242 233.581 253.617 241.717 261.591 258.267C269.566 274.816 279.77 279.41 282.782 282.787ZM227.408 204.743C227.129 204.577 236.999 214.208 234.88 220.075C232.761 225.998 232.259 230.093 236.497 231.865C240.791 233.636 251.108 226.053 243.858 216.976C236.609 207.843 229.694 206.404 227.408 204.743ZM222.779 0.00337133C222.556 -0.218029 231.2 10.5199 228.411 16.1102C225.567 21.7006 224.619 25.7965 228.634 28.0105C232.705 30.2798 243.858 23.9146 237.724 14.0623C231.59 4.15462 224.898 1.94062 222.779 0.00337133ZM62.6793 63.0471C62.3447 63.2685 81.3604 54.1911 88.8328 60.2796C96.3053 66.3681 102.049 69.1909 106.845 64.0434C111.641 58.8404 105.953 40.1321 89.0001 45.7778C71.992 51.4235 66.304 60.6117 62.6793 63.0471ZM99.3723 176.625C99.205 176.293 103.22 190.407 98.0898 194.78C93.0152 199.153 90.3385 202.695 93.3498 206.625C96.3611 210.5 110.023 208.839 108.183 196.607C106.287 184.374 100.599 179.393 99.3723 176.625ZM404.181 194.282C404.516 194.614 391.076 176.349 396.151 167.271C401.17 158.249 403.122 151.607 396.597 147.622C390.128 143.581 371.169 153.212 380.537 169.983C389.905 186.754 400.891 190.961 404.181 194.282ZM211.236 74.6706C211.292 74.1724 205.269 94.9287 195.399 96.4785C185.584 98.0283 179.45 100.464 180.175 107.659C180.956 114.855 199.358 123.323 206.607 106.552C213.857 89.7258 210.622 79.0986 211.236 74.6706ZM248.654 198.821C249.1 198.931 229.805 189.522 230.029 179.836C230.252 170.094 228.913 163.729 221.775 163.231C214.582 162.677 203.094 178.95 218.262 188.802C233.43 198.71 244.416 197.437 248.654 198.821ZM345.35 147.511C345.126 147.124 353.324 167.382 346.465 174.688C339.606 181.994 336.204 187.695 341.334 192.954C346.465 198.267 366.484 193.673 361.689 175.795C356.893 157.917 347.692 151.441 345.35 147.511ZM335.368 163.95C335.647 163.95 322.04 162.29 320.088 156.423C318.136 150.5 316.017 146.958 311.556 148.12C307.095 149.338 303.638 161.515 314.902 164.338C326.167 167.105 332.524 164.006 335.368 163.95ZM172.535 20.7596C172.089 20.6489 192.109 26.6267 193.503 36.0362C194.897 45.4458 197.183 51.3129 204.154 50.704C211.18 50.0398 219.601 32.5492 203.373 25.4644C187.146 18.3796 176.829 21.3685 172.535 20.7596ZM317.746 167.659C318.136 167.769 300.794 159.578 300.849 150.888C300.905 142.142 299.678 136.497 293.265 136.109C286.797 135.722 276.703 150.389 290.421 159.079C304.14 167.769 313.954 166.496 317.746 167.659ZM305.924 75.1687C305.98 75.3901 303.638 64.8183 307.597 61.8293C311.556 58.8404 313.675 56.2943 311.612 53.3054C309.549 50.3165 299.4 50.9254 300.292 60.0582C301.128 69.1909 305.088 73.0654 305.924 75.1687Z" fill="#5D3891"/>
</svg>
