<svg width="697" height="570" viewBox="0 0 697 570" fill="none" xmlns="http://www.w3.org/2000/svg">
<path d="M288.366 -420.993C276.969 -386.638 276.647 -302.097 366.527 -238.774C478.878 -159.62 609.987 -190.344 728.92 -132.755C816.702 -90.2494 1005.99 56.5595 1015.79 210.287" stroke="white" stroke-width="2"/>
<path d="M252.828 -379.526C241.431 -345.171 241.109 -260.63 330.989 -197.307C443.34 -118.153 574.449 -148.877 693.382 -91.2879C781.164 -48.7826 970.456 98.0263 980.251 251.753" stroke="white" stroke-width="2"/>
<path d="M220.492 -335.517C209.095 -301.161 208.773 -216.62 298.653 -153.297C411.004 -74.1433 542.113 -104.867 661.046 -47.2781C748.828 -4.7729 938.12 142.036 947.915 295.763" stroke="white" stroke-width="2"/>
<path d="M191.359 -289.324C179.963 -254.969 179.64 -170.428 269.521 -107.105C381.871 -27.9507 512.98 -58.6748 631.913 -1.08548C719.695 41.4198 908.987 188.229 918.783 341.956" stroke="white" stroke-width="2"/>
<path d="M165.384 -241.285C153.988 -206.93 153.666 -122.388 243.546 -59.0654C355.896 20.0885 487.005 -10.6356 605.939 46.9537C693.721 89.459 883.012 236.268 892.808 389.995" stroke="white" stroke-width="2"/>
<path d="M142.496 -191.699C131.1 -157.344 130.778 -72.8031 220.658 -9.47995C333.009 69.6739 464.118 38.9498 583.051 96.5392C670.833 139.044 860.124 285.853 869.92 439.58" stroke="white" stroke-width="2"/>
<path d="M122.619 -140.833C111.222 -106.478 110.9 -21.9368 200.78 41.3863C313.131 120.54 444.24 89.816 563.173 147.405C650.955 189.911 840.247 336.72 850.042 490.447" stroke="white" stroke-width="2"/>
<path d="M105.695 -88.9216C94.2985 -54.5665 93.9762 29.9745 183.857 93.2976C296.207 172.452 427.316 141.727 546.249 199.317C634.031 241.822 823.323 388.631 833.119 542.358" stroke="white" stroke-width="2"/>
</svg>
